<?xml version="1.0" encoding="iso-8859-1"?>
<!-- Generator: Adobe Illustrator 19.0.0, SVG Export Plug-In . SVG Version: 6.00 Build 0)  -->
<svg version="1.1" id="Layer_1" xmlns="http://www.w3.org/2000/svg" xmlns:xlink="http://www.w3.org/1999/xlink" x="0px" y="0px"
	 viewBox="0 0 512 512" style="enable-background:new 0 0 512 512;" xml:space="preserve">
<polyline style="fill:#F2BF7E;" points="190.438,72.551 173.855,72.551 173.855,40.047 213.953,8.291 461.898,8.291 501.369,40.047 
	501.369,64.259 485.822,64.259 "/>
<rect x="173.955" y="40.047" style="fill:#AA603B;" width="319.927" height="31.993"/>
<polyline style="fill:#B3B3B3;" points="53.628,408.356 53.628,503.709 470.276,503.709 470.276,64.259 205.984,64.259 
	205.984,191.741 53.628,191.741 53.628,264.292 "/>
<rect x="245.946" y="96.036" style="fill:#FFFFFF;" width="63.986" height="71.981"/>
<rect x="309.925" y="96.036" style="fill:#99C6E4;" width="119.978" height="71.981"/>
<rect x="229.943" y="168.017" style="fill:#AA603B;" width="215.952" height="31.993"/>
<rect x="85.754" y="232.162" style="fill:#99C6E4;" width="359.644" height="79.806"/>
<path style="fill:#C5FFCA;" d="M366.632,231.695v20.294c0,5.989,2.093,11.788,5.916,16.397l3.346,4.034
	c4.062,4.896,6.284,11.057,6.284,17.417v22.13h39.385v-79.806L366.632,231.695z"/>
<rect x="269.94" y="447.959" style="fill:#FFFFFF;" width="167.965" height="55.988"/>
<g>
	<rect x="269.94" y="351.984" style="fill:#C5FFCA;" width="167.965" height="31.993"/>
	<rect x="269.94" y="415.964" style="fill:#C5FFCA;" width="167.965" height="31.993"/>
	<rect x="269.94" y="383.969" style="fill:#C5FFCA;" width="167.965" height="31.993"/>
</g>
<path style="fill:#F2BF7E;" d="M165.759,283.91l-19.795,19.795l-19.795-19.795c-26.55-26.55-69.596-26.549-96.145,0
	s-26.55,69.596,0,96.145l19.795,19.795l96.145,96.145l96.145-96.145l19.795-19.795c26.549-26.549,26.549-69.596,0-96.145
	C235.355,257.361,192.309,257.361,165.759,283.91z"/>
<path style="fill:#AA603B;" d="M145.965,303.705L126.17,283.91c-26.55-26.55-69.596-26.549-96.145,0s-26.55,69.596,0,96.145
	L49.82,399.85l96.145,96.145"/>
<rect x="309.625" y="440.486" width="16.583" height="15.547"/>
<path d="M197.693,55.968v128.518H46.373v78.673c-8.02,3.702-15.411,8.823-21.843,15.255c-14.31,14.309-22.19,33.334-22.19,53.569
	c0,20.234,7.881,39.26,22.189,53.568l22.803,22.805h-0.96V512H477.53V55.968H197.693z M61.919,496.453v-73.51l73.51,73.51H61.919z
	 M35.521,374.559c-11.373-11.373-17.636-26.491-17.636-42.575s6.263-31.203,17.637-42.576
	c11.373-11.373,26.493-17.637,42.576-17.637s31.203,6.263,42.575,17.637l25.291,25.29l25.291-25.29
	c11.373-11.373,26.492-17.637,42.576-17.637s31.204,6.263,42.576,17.637c11.373,11.373,17.636,26.492,17.636,42.576
	s-6.263,31.202-17.636,42.575L145.964,485.003L35.521,374.559z M429.855,408.356H277.498v-16.583h152.356V408.356z M461.984,496.453
	H156.5l105.451-105.45v97.159h15.547v-32.13h24.874v-15.547h-24.874v-16.583h152.356v16.583h-23.838v15.547h23.838v32.13h15.547
	V344.097h-151.32v15.547h135.773v16.583H275.329c9.253-12.805,14.261-28.136,14.261-44.243c0-20.235-7.88-39.261-22.188-53.568
	c-14.309-14.31-33.334-22.19-53.569-22.19s-39.26,7.881-53.57,22.189l-14.298,14.299l-14.298-14.298
	c-14.309-14.31-33.334-22.19-53.57-22.19c-5.508,0-10.92,0.604-16.178,1.742v-57.935h151.32V71.514h248.745V496.453z"/>
<rect x="382.175" y="440.486" width="15.547" height="15.547"/>
<rect x="333.463" y="440.486" width="40.421" height="15.547"/>
<rect x="158.305" y="120.227" width="15.547" height="55.968"/>
<rect x="126.175" y="120.227" width="15.547" height="55.968"/>
<rect x="94.046" y="120.227" width="15.547" height="55.968"/>
<rect x="61.919" y="120.227" width="15.547" height="55.968"/>
<path d="M437.677,160.246V88.262H238.17v71.984h-15.997v47.539h231.499v-47.539H437.677z M422.13,160.246H317.919v-56.437H422.13
	V160.246z M253.716,103.809h48.656v56.437h-48.656V103.809z M438.125,192.238H237.72v-16.446h0.451h199.506h0.45v16.446H438.125z"/>
<g>
	
		<rect x="332.169" y="113.533" transform="matrix(-0.7072 -0.707 0.707 -0.7072 494.0844 448.6495)" style="fill:#FFFFFF;" width="15.546" height="16.967"/>
	
		<rect x="362.115" y="115.067" transform="matrix(-0.707 -0.7072 0.7072 -0.707 538.0275 486.9694)" style="fill:#FFFFFF;" width="15.546" height="33.933"/>
	
		<rect x="394.131" y="134.371" transform="matrix(-0.7071 -0.7071 0.7071 -0.7071 587.0805 523.2283)" style="fill:#FFFFFF;" width="15.546" height="11.311"/>
</g>
<polygon points="464.644,0 211.186,0 166.6,36.356 166.6,79.806 190.438,79.806 190.438,64.259 182.146,64.259 182.146,47.676 
	214.276,47.676 214.276,32.13 196.384,32.13 216.721,15.547 459.152,15.547 479.699,32.13 229.822,32.13 229.822,47.676 
	494.114,47.676 494.114,64.259 485.822,64.259 485.822,79.806 509.66,79.806 509.66,36.332 "/>
<path d="M78.502,223.87v23.838h15.547v-8.292H358.34V256c0,10.123,6.591,19.011,15.547,22.357v26.356h-79.806v15.547h159.611V223.87
	H78.502z M389.434,279.838h8.292v-15.547h-8.292h-7.255h-0.518c-4.141,0-7.773-3.91-7.773-8.292v-16.583h40.421v24.874h-8.292
	v15.547h8.292v24.874h-24.875V279.838z M438.146,304.713h-8.292v-65.296h8.292V304.713z"/>
<g>
	
		<rect x="286.182" y="260.679" transform="matrix(-0.7072 -0.707 0.707 -0.7072 309.5435 672.1722)" style="fill:#FFFFFF;" width="15.546" height="22.622"/>
	
		<rect x="322.152" y="259.021" transform="matrix(-0.7071 -0.7071 0.7071 -0.7071 368.0653 704.4333)" style="fill:#FFFFFF;" width="15.546" height="33.934"/>
</g>
<rect x="46.373" y="111.935" style="fill:#AA603B;" width="144.065" height="15.547"/>
<g>
</g>
<g>
</g>
<g>
</g>
<g>
</g>
<g>
</g>
<g>
</g>
<g>
</g>
<g>
</g>
<g>
</g>
<g>
</g>
<g>
</g>
<g>
</g>
<g>
</g>
<g>
</g>
<g>
</g>
</svg>
